<?xml version="1.0" encoding="UTF-8" standalone="no"?>
<!DOCTYPE svg PUBLIC "-//W3C//DTD SVG 1.1//EN"
 "http://www.w3.org/Graphics/SVG/1.1/DTD/svg11.dtd">
<!-- Generated by graphviz version 2.26.3 (20100126.1600)
 -->
<!-- Title: dependency&#45;graph Pages: 1 -->
<svg width="2842pt" height="922pt"
 viewBox="0.00 0.00 2842.00 921.85" xmlns="http://www.w3.org/2000/svg" xmlns:xlink="http://www.w3.org/1999/xlink">
<g id="graph1" class="graph" transform="scale(1 1) rotate(0) translate(4 917.847)">
<title>dependency&#45;graph</title>
<polygon fill="white" stroke="white" points="-4,5 -4,-917.847 2839,-917.847 2839,5 -4,5"/>
<!-- gov.nasa.jpl.imce:imce.magicdraw.library.enhanced_api_2.11:5.2.3 -->
<g id="node1" class="node"><title>gov.nasa.jpl.imce:imce.magicdraw.library.enhanced_api_2.11:5.2.3</title>
<ellipse fill="none" stroke="black" cx="221" cy="-129" rx="220.117" ry="41.7193"/>
<text text-anchor="start" x="162" y="-144.233" font-family="Times Roman,serif" font-size="14.00">gov.nasa.jpl.imce</text>
<text text-anchor="start" x="73.5" y="-127.433" font-family="Times Roman,serif" font-size="14.00">imce.magicdraw.library.enhanced_api_2.11</text>
<text text-anchor="start" x="202.5" y="-110.633" font-family="Times Roman,serif" font-size="14.00">5.2.3</text>
</g>
<!-- gov.nasa.jpl.imce:imce.third_party.aspectj_libraries_2.11:3.0.8 -->
<g id="node2" class="node"><title>gov.nasa.jpl.imce:imce.third_party.aspectj_libraries_2.11:3.0.8</title>
<ellipse fill="none" stroke="black" cx="680" cy="-313" rx="198.904" ry="41.7193"/>
<text text-anchor="start" x="621" y="-328.233" font-family="Times Roman,serif" font-size="14.00">gov.nasa.jpl.imce</text>
<text text-anchor="start" x="547.5" y="-311.433" font-family="Times Roman,serif" font-size="14.00">imce.third_party.aspectj_libraries_2.11</text>
<text text-anchor="start" x="661.5" y="-294.633" font-family="Times Roman,serif" font-size="14.00">3.0.8</text>
</g>
<!-- gov.nasa.jpl.imce:imce.magicdraw.library.enhanced_api_2.11:5.2.3&#45;&gt;gov.nasa.jpl.imce:imce.third_party.aspectj_libraries_2.11:3.0.8 -->
<g id="edge2" class="edge"><title>gov.nasa.jpl.imce:imce.magicdraw.library.enhanced_api_2.11:5.2.3&#45;&gt;gov.nasa.jpl.imce:imce.third_party.aspectj_libraries_2.11:3.0.8</title>
<path fill="none" stroke="black" d="M313.885,-166.235C390.913,-197.113 500.221,-240.932 579.326,-272.643"/>
<polygon fill="black" stroke="black" points="578.235,-275.976 588.819,-276.448 580.839,-269.479 578.235,-275.976"/>
</g>
<!-- org.omg.tiwg.vendor.nomagic:com.nomagic.magicdraw.package:18.4&#45;sp1.0 -->
<g id="node15" class="node"><title>org.omg.tiwg.vendor.nomagic:com.nomagic.magicdraw.package:18.4&#45;sp1.0</title>
<ellipse fill="none" stroke="black" cx="680" cy="-41" rx="173.948" ry="41.7193"/>
<text text-anchor="start" x="577.5" y="-56.2333" font-family="Times Roman,serif" font-size="14.00">org.omg.tiwg.vendor.nomagic</text>
<text text-anchor="start" x="565.5" y="-39.4333" font-family="Times Roman,serif" font-size="14.00">com.nomagic.magicdraw.package</text>
<text text-anchor="start" x="642.5" y="-22.6333" font-family="Times Roman,serif" font-size="14.00">18.4&#45;sp1.0</text>
</g>
<!-- gov.nasa.jpl.imce:imce.magicdraw.library.enhanced_api_2.11:5.2.3&#45;&gt;org.omg.tiwg.vendor.nomagic:com.nomagic.magicdraw.package:18.4&#45;sp1.0 -->
<g id="edge32" class="edge"><title>gov.nasa.jpl.imce:imce.magicdraw.library.enhanced_api_2.11:5.2.3&#45;&gt;org.omg.tiwg.vendor.nomagic:com.nomagic.magicdraw.package:18.4&#45;sp1.0</title>
<path fill="none" stroke="black" d="M374.798,-99.5137C426.455,-89.6099 483.875,-78.6012 534.847,-68.8288"/>
<polygon fill="black" stroke="black" points="535.79,-72.2119 544.952,-66.8915 534.472,-65.3371 535.79,-72.2119"/>
</g>
<!-- org.aspectj:aspectjrt:1.8.9 -->
<g id="node16" class="node"><title>org.aspectj:aspectjrt:1.8.9</title>
<ellipse fill="none" stroke="black" cx="1108" cy="-179" rx="65.7609" ry="41.7193"/>
<text text-anchor="start" x="1070" y="-194.233" font-family="Times Roman,serif" font-size="14.00">org.aspectj</text>
<text text-anchor="start" x="1077.5" y="-177.433" font-family="Times Roman,serif" font-size="14.00">aspectjrt</text>
<text text-anchor="start" x="1089.5" y="-160.633" font-family="Times Roman,serif" font-size="14.00">1.8.9</text>
</g>
<!-- gov.nasa.jpl.imce:imce.magicdraw.library.enhanced_api_2.11:5.2.3&#45;&gt;org.aspectj:aspectjrt:1.8.9 -->
<g id="edge36" class="edge"><title>gov.nasa.jpl.imce:imce.magicdraw.library.enhanced_api_2.11:5.2.3&#45;&gt;org.aspectj:aspectjrt:1.8.9</title>
<path fill="none" stroke="black" d="M432.05,-140.897C625.309,-151.791 900.657,-167.312 1032.27,-174.731"/>
<polygon fill="black" stroke="black" points="1032.08,-178.226 1042.26,-175.294 1032.47,-171.237 1032.08,-178.226"/>
</g>
<!-- com.sksamuel.scapegoat:scalac&#45;scapegoat&#45;plugin_2.11:1.0.0 -->
<g id="node18" class="node"><title>com.sksamuel.scapegoat:scalac&#45;scapegoat&#45;plugin_2.11:1.0.0</title>
<ellipse fill="none" stroke="black" cx="1505" cy="-319" rx="154.856" ry="41.7193"/>
<text text-anchor="start" x="1420" y="-334.233" font-family="Times Roman,serif" font-size="14.00">com.sksamuel.scapegoat</text>
<text text-anchor="start" x="1404" y="-317.433" font-family="Times Roman,serif" font-size="14.00">scalac&#45;scapegoat&#45;plugin_2.11</text>
<text text-anchor="start" x="1486.5" y="-300.633" font-family="Times Roman,serif" font-size="14.00">1.0.0</text>
</g>
<!-- gov.nasa.jpl.imce:imce.magicdraw.library.enhanced_api_2.11:5.2.3&#45;&gt;com.sksamuel.scapegoat:scalac&#45;scapegoat&#45;plugin_2.11:1.0.0 -->
<g id="edge48" class="edge"><title>gov.nasa.jpl.imce:imce.magicdraw.library.enhanced_api_2.11:5.2.3&#45;&gt;com.sksamuel.scapegoat:scalac&#45;scapegoat&#45;plugin_2.11:1.0.0</title>
<path fill="none" stroke="black" d="M436.893,-120.645C728.343,-110.645 1220.33,-98.7576 1298,-129 1370.47,-157.217 1432.96,-223.978 1469.79,-270.331"/>
<polygon fill="black" stroke="black" points="1467.22,-272.731 1476.15,-278.447 1472.74,-268.416 1467.22,-272.731"/>
</g>
<!-- org.aspectj:aspectjweaver:1.8.9 -->
<g id="node3" class="node"><title>org.aspectj:aspectjweaver:1.8.9</title>
<ellipse fill="none" stroke="black" cx="1108" cy="-279" rx="82.2301" ry="41.7193"/>
<text text-anchor="start" x="1070" y="-294.233" font-family="Times Roman,serif" font-size="14.00">org.aspectj</text>
<text text-anchor="start" x="1058" y="-277.433" font-family="Times Roman,serif" font-size="14.00">aspectjweaver</text>
<text text-anchor="start" x="1089.5" y="-260.633" font-family="Times Roman,serif" font-size="14.00">1.8.9</text>
</g>
<!-- gov.nasa.jpl.imce:imce.third_party.aspectj_libraries_2.11:3.0.8&#45;&gt;org.aspectj:aspectjweaver:1.8.9 -->
<g id="edge4" class="edge"><title>gov.nasa.jpl.imce:imce.third_party.aspectj_libraries_2.11:3.0.8&#45;&gt;org.aspectj:aspectjweaver:1.8.9</title>
<path fill="none" stroke="black" d="M866.171,-298.211C918.142,-294.082 972.342,-289.777 1016.22,-286.291"/>
<polygon fill="black" stroke="black" points="1016.59,-289.772 1026.29,-285.491 1016.04,-282.794 1016.59,-289.772"/>
</g>
<!-- org.aspectj:aspectjtools:1.8.9 -->
<g id="node4" class="node"><title>org.aspectj:aspectjtools:1.8.9</title>
<ellipse fill="none" stroke="black" cx="1108" cy="-417" rx="70.0036" ry="41.7193"/>
<text text-anchor="start" x="1070" y="-432.233" font-family="Times Roman,serif" font-size="14.00">org.aspectj</text>
<text text-anchor="start" x="1067" y="-415.433" font-family="Times Roman,serif" font-size="14.00">aspectjtools</text>
<text text-anchor="start" x="1089.5" y="-398.633" font-family="Times Roman,serif" font-size="14.00">1.8.9</text>
</g>
<!-- gov.nasa.jpl.imce:imce.third_party.aspectj_libraries_2.11:3.0.8&#45;&gt;org.aspectj:aspectjtools:1.8.9 -->
<g id="edge6" class="edge"><title>gov.nasa.jpl.imce:imce.third_party.aspectj_libraries_2.11:3.0.8&#45;&gt;org.aspectj:aspectjtools:1.8.9</title>
<path fill="none" stroke="black" d="M808.995,-344.344C882.205,-362.134 971.266,-383.775 1033.05,-398.788"/>
<polygon fill="black" stroke="black" points="1032.57,-402.272 1043.11,-401.232 1034.22,-395.47 1032.57,-402.272"/>
</g>
<!-- gov.nasa.jpl.imce:imce.third_party.scala_libraries_2.11:3.0.4 -->
<g id="node5" class="node"><title>gov.nasa.jpl.imce:imce.third_party.scala_libraries_2.11:3.0.4</title>
<ellipse fill="none" stroke="black" cx="1108" cy="-617" rx="189.005" ry="41.7193"/>
<text text-anchor="start" x="1049" y="-632.233" font-family="Times Roman,serif" font-size="14.00">gov.nasa.jpl.imce</text>
<text text-anchor="start" x="982.5" y="-615.433" font-family="Times Roman,serif" font-size="14.00">imce.third_party.scala_libraries_2.11</text>
<text text-anchor="start" x="1089.5" y="-598.633" font-family="Times Roman,serif" font-size="14.00">3.0.4</text>
</g>
<!-- gov.nasa.jpl.imce:imce.third_party.aspectj_libraries_2.11:3.0.8&#45;&gt;gov.nasa.jpl.imce:imce.third_party.scala_libraries_2.11:3.0.4 -->
<g id="edge8" class="edge"><title>gov.nasa.jpl.imce:imce.third_party.aspectj_libraries_2.11:3.0.8&#45;&gt;gov.nasa.jpl.imce:imce.third_party.scala_libraries_2.11:3.0.4</title>
<path fill="none" stroke="black" d="M735.515,-352.431C814.893,-408.812 960.459,-512.204 1044.18,-571.671"/>
<polygon fill="black" stroke="black" points="1042.4,-574.702 1052.58,-577.639 1046.46,-568.995 1042.4,-574.702"/>
</g>
<!-- gov.nasa.jpl.imce:imce.third_party.aspectj_libraries_2.11:3.0.8&#45;&gt;org.aspectj:aspectjrt:1.8.9 -->
<g id="edge34" class="edge"><title>gov.nasa.jpl.imce:imce.third_party.aspectj_libraries_2.11:3.0.8&#45;&gt;org.aspectj:aspectjrt:1.8.9</title>
<path fill="none" stroke="black" d="M776.095,-277.065C819.214,-261.464 870.882,-243.488 918,-229 956.89,-217.042 1000.79,-205.372 1036.59,-196.318"/>
<polygon fill="black" stroke="black" points="1037.61,-199.669 1046.46,-193.835 1035.91,-192.88 1037.61,-199.669"/>
</g>
<!-- gov.nasa.jpl.imce:imce.third_party.aspectj_libraries_2.11:3.0.8&#45;&gt;com.sksamuel.scapegoat:scalac&#45;scapegoat&#45;plugin_2.11:1.0.0 -->
<g id="edge46" class="edge"><title>gov.nasa.jpl.imce:imce.third_party.aspectj_libraries_2.11:3.0.8&#45;&gt;com.sksamuel.scapegoat:scalac&#45;scapegoat&#45;plugin_2.11:1.0.0</title>
<path fill="none" stroke="black" d="M867.994,-326.814C884.896,-327.7 901.755,-328.455 918,-329 1086.79,-334.667 1129.16,-333.076 1298,-329 1312.47,-328.651 1327.5,-328.164 1342.56,-327.593"/>
<polygon fill="black" stroke="black" points="1343.12,-331.073 1352.98,-327.184 1342.85,-324.079 1343.12,-331.073"/>
</g>
<!-- org.scala&#45;lang.plugins:scala&#45;continuations&#45;library_2.11:1.0.2 -->
<g id="node6" class="node"><title>org.scala&#45;lang.plugins:scala&#45;continuations&#45;library_2.11:1.0.2</title>
<ellipse fill="none" stroke="black" cx="1505" cy="-667" rx="168.999" ry="41.7193"/>
<text text-anchor="start" x="1430.5" y="-682.233" font-family="Times Roman,serif" font-size="14.00">org.scala&#45;lang.plugins</text>
<text text-anchor="start" x="1394" y="-665.433" font-family="Times Roman,serif" font-size="14.00">scala&#45;continuations&#45;library_2.11</text>
<text text-anchor="start" x="1486.5" y="-648.633" font-family="Times Roman,serif" font-size="14.00">1.0.2</text>
</g>
<!-- gov.nasa.jpl.imce:imce.third_party.scala_libraries_2.11:3.0.4&#45;&gt;org.scala&#45;lang.plugins:scala&#45;continuations&#45;library_2.11:1.0.2 -->
<g id="edge10" class="edge"><title>gov.nasa.jpl.imce:imce.third_party.scala_libraries_2.11:3.0.4&#45;&gt;org.scala&#45;lang.plugins:scala&#45;continuations&#45;library_2.11:1.0.2</title>
<path fill="none" stroke="black" d="M1272.05,-637.662C1296.05,-640.684 1320.75,-643.794 1344.67,-646.807"/>
<polygon fill="black" stroke="black" points="1344.51,-650.315 1354.87,-648.092 1345.39,-643.37 1344.51,-650.315"/>
</g>
<!-- org.scala&#45;lang.modules:scala&#45;java8&#45;compat_2.11:0.8.0&#45;RC8 -->
<g id="node7" class="node"><title>org.scala&#45;lang.modules:scala&#45;java8&#45;compat_2.11:0.8.0&#45;RC8</title>
<ellipse fill="none" stroke="black" cx="1505" cy="-567" rx="133.143" ry="41.7193"/>
<text text-anchor="start" x="1426.5" y="-582.233" font-family="Times Roman,serif" font-size="14.00">org.scala&#45;lang.modules</text>
<text text-anchor="start" x="1419" y="-565.433" font-family="Times Roman,serif" font-size="14.00">scala&#45;java8&#45;compat_2.11</text>
<text text-anchor="start" x="1470" y="-548.633" font-family="Times Roman,serif" font-size="14.00">0.8.0&#45;RC8</text>
</g>
<!-- gov.nasa.jpl.imce:imce.third_party.scala_libraries_2.11:3.0.4&#45;&gt;org.scala&#45;lang.modules:scala&#45;java8&#45;compat_2.11:0.8.0&#45;RC8 -->
<g id="edge12" class="edge"><title>gov.nasa.jpl.imce:imce.third_party.scala_libraries_2.11:3.0.4&#45;&gt;org.scala&#45;lang.modules:scala&#45;java8&#45;compat_2.11:0.8.0&#45;RC8</title>
<path fill="none" stroke="black" d="M1272.05,-596.338C1304.99,-592.19 1339.23,-587.878 1371,-583.877"/>
<polygon fill="black" stroke="black" points="1371.74,-587.311 1381.22,-582.589 1370.86,-580.366 1371.74,-587.311"/>
</g>
<!-- org.scala&#45;lang.modules:scala&#45;swing_2.11:1.0.2 -->
<g id="node8" class="node"><title>org.scala&#45;lang.modules:scala&#45;swing_2.11:1.0.2</title>
<ellipse fill="none" stroke="black" cx="1505" cy="-467" rx="123.037" ry="41.7193"/>
<text text-anchor="start" x="1426.5" y="-482.233" font-family="Times Roman,serif" font-size="14.00">org.scala&#45;lang.modules</text>
<text text-anchor="start" x="1445.5" y="-465.433" font-family="Times Roman,serif" font-size="14.00">scala&#45;swing_2.11</text>
<text text-anchor="start" x="1486.5" y="-448.633" font-family="Times Roman,serif" font-size="14.00">1.0.2</text>
</g>
<!-- gov.nasa.jpl.imce:imce.third_party.scala_libraries_2.11:3.0.4&#45;&gt;org.scala&#45;lang.modules:scala&#45;swing_2.11:1.0.2 -->
<g id="edge14" class="edge"><title>gov.nasa.jpl.imce:imce.third_party.scala_libraries_2.11:3.0.4&#45;&gt;org.scala&#45;lang.modules:scala&#45;swing_2.11:1.0.2</title>
<path fill="none" stroke="black" d="M1186.67,-579.576C1230.15,-559.634 1285.46,-535.477 1336,-517 1356.43,-509.529 1378.56,-502.351 1399.85,-495.879"/>
<polygon fill="black" stroke="black" points="1401,-499.189 1409.57,-492.957 1398.98,-492.485 1401,-499.189"/>
</g>
<!-- org.scala&#45;lang.modules:scala&#45;xml_2.11:1.0.6 -->
<g id="node9" class="node"><title>org.scala&#45;lang.modules:scala&#45;xml_2.11:1.0.6</title>
<ellipse fill="none" stroke="black" cx="2711" cy="-739" rx="123.037" ry="41.7193"/>
<text text-anchor="start" x="2632.5" y="-754.233" font-family="Times Roman,serif" font-size="14.00">org.scala&#45;lang.modules</text>
<text text-anchor="start" x="2659.5" y="-737.433" font-family="Times Roman,serif" font-size="14.00">scala&#45;xml_2.11</text>
<text text-anchor="start" x="2692.5" y="-720.633" font-family="Times Roman,serif" font-size="14.00">1.0.6</text>
</g>
<!-- gov.nasa.jpl.imce:imce.third_party.scala_libraries_2.11:3.0.4&#45;&gt;org.scala&#45;lang.modules:scala&#45;xml_2.11:1.0.6 -->
<g id="edge16" class="edge"><title>gov.nasa.jpl.imce:imce.third_party.scala_libraries_2.11:3.0.4&#45;&gt;org.scala&#45;lang.modules:scala&#45;xml_2.11:1.0.6</title>
<path fill="none" stroke="black" d="M1129.77,-657.797C1164.55,-718.583 1238.77,-831.59 1336,-886 1402.32,-923.111 1429.01,-912 1505,-912 1505,-912 1505,-912 2317,-912 2389.16,-912 2410.31,-916.006 2478,-891 2545.31,-866.133 2612.98,-818.93 2657.91,-783.694"/>
<polygon fill="black" stroke="black" points="2660.09,-786.436 2665.75,-777.484 2655.74,-780.948 2660.09,-786.436"/>
</g>
<!-- org.scala&#45;lang:scalap:2.11.8 -->
<g id="node12" class="node"><title>org.scala&#45;lang:scalap:2.11.8</title>
<ellipse fill="none" stroke="black" cx="1505" cy="-805" rx="79.9031" ry="41.7193"/>
<text text-anchor="start" x="1457" y="-820.233" font-family="Times Roman,serif" font-size="14.00">org.scala&#45;lang</text>
<text text-anchor="start" x="1483.5" y="-803.433" font-family="Times Roman,serif" font-size="14.00">scalap</text>
<text text-anchor="start" x="1482" y="-786.633" font-family="Times Roman,serif" font-size="14.00">2.11.8</text>
</g>
<!-- gov.nasa.jpl.imce:imce.third_party.scala_libraries_2.11:3.0.4&#45;&gt;org.scala&#45;lang:scalap:2.11.8 -->
<g id="edge22" class="edge"><title>gov.nasa.jpl.imce:imce.third_party.scala_libraries_2.11:3.0.4&#45;&gt;org.scala&#45;lang:scalap:2.11.8</title>
<path fill="none" stroke="black" d="M1160.33,-656.449C1201.01,-685.599 1259.8,-724.492 1316,-750 1349.42,-765.168 1388.06,-777.289 1421.67,-786.251"/>
<polygon fill="black" stroke="black" points="1420.9,-789.668 1431.46,-788.812 1422.67,-782.896 1420.9,-789.668"/>
</g>
<!-- org.scala&#45;lang:scala&#45;compiler:2.11.8 -->
<g id="node13" class="node"><title>org.scala&#45;lang:scala&#45;compiler:2.11.8</title>
<ellipse fill="none" stroke="black" cx="1793" cy="-739" rx="80.1095" ry="41.7193"/>
<text text-anchor="start" x="1745" y="-754.233" font-family="Times Roman,serif" font-size="14.00">org.scala&#45;lang</text>
<text text-anchor="start" x="1744.5" y="-737.433" font-family="Times Roman,serif" font-size="14.00">scala&#45;compiler</text>
<text text-anchor="start" x="1770" y="-720.633" font-family="Times Roman,serif" font-size="14.00">2.11.8</text>
</g>
<!-- gov.nasa.jpl.imce:imce.third_party.scala_libraries_2.11:3.0.4&#45;&gt;org.scala&#45;lang:scala&#45;compiler:2.11.8 -->
<g id="edge24" class="edge"><title>gov.nasa.jpl.imce:imce.third_party.scala_libraries_2.11:3.0.4&#45;&gt;org.scala&#45;lang:scala&#45;compiler:2.11.8</title>
<path fill="none" stroke="black" d="M1177.06,-655.221C1221.13,-677.575 1280.25,-703.904 1336,-717 1460.66,-746.282 1609.54,-747.409 1702.7,-744.229"/>
<polygon fill="black" stroke="black" points="1703.07,-747.718 1712.94,-743.855 1702.82,-740.723 1703.07,-747.718"/>
</g>
<!-- org.scala&#45;lang.modules:scala&#45;parser&#45;combinators_2.11:1.0.4 -->
<g id="node14" class="node"><title>org.scala&#45;lang.modules:scala&#45;parser&#45;combinators_2.11:1.0.4</title>
<ellipse fill="none" stroke="black" cx="2317" cy="-841" rx="161.22" ry="41.7193"/>
<text text-anchor="start" x="2238.5" y="-856.233" font-family="Times Roman,serif" font-size="14.00">org.scala&#45;lang.modules</text>
<text text-anchor="start" x="2211.5" y="-839.433" font-family="Times Roman,serif" font-size="14.00">scala&#45;parser&#45;combinators_2.11</text>
<text text-anchor="start" x="2298.5" y="-822.633" font-family="Times Roman,serif" font-size="14.00">1.0.4</text>
</g>
<!-- gov.nasa.jpl.imce:imce.third_party.scala_libraries_2.11:3.0.4&#45;&gt;org.scala&#45;lang.modules:scala&#45;parser&#45;combinators_2.11:1.0.4 -->
<g id="edge30" class="edge"><title>gov.nasa.jpl.imce:imce.third_party.scala_libraries_2.11:3.0.4&#45;&gt;org.scala&#45;lang.modules:scala&#45;parser&#45;combinators_2.11:1.0.4</title>
<path fill="none" stroke="black" d="M1131.91,-657.729C1167.86,-714.452 1241.8,-814.791 1336,-855 1479.53,-916.264 1920.21,-882.651 2159.1,-858.595"/>
<polygon fill="black" stroke="black" points="2159.68,-862.055 2169.27,-857.565 2158.97,-855.091 2159.68,-862.055"/>
</g>
<!-- org.scala&#45;lang:scala&#45;reflect:2.11.8 -->
<g id="node17" class="node"><title>org.scala&#45;lang:scala&#45;reflect:2.11.8</title>
<ellipse fill="none" stroke="black" cx="2317" cy="-365" rx="79.9031" ry="41.7193"/>
<text text-anchor="start" x="2269" y="-380.233" font-family="Times Roman,serif" font-size="14.00">org.scala&#45;lang</text>
<text text-anchor="start" x="2275" y="-363.433" font-family="Times Roman,serif" font-size="14.00">scala&#45;reflect</text>
<text text-anchor="start" x="2294" y="-346.633" font-family="Times Roman,serif" font-size="14.00">2.11.8</text>
</g>
<!-- gov.nasa.jpl.imce:imce.third_party.scala_libraries_2.11:3.0.4&#45;&gt;org.scala&#45;lang:scala&#45;reflect:2.11.8 -->
<g id="edge40" class="edge"><title>gov.nasa.jpl.imce:imce.third_party.scala_libraries_2.11:3.0.4&#45;&gt;org.scala&#45;lang:scala&#45;reflect:2.11.8</title>
<path fill="none" stroke="black" d="M1165.14,-577.766C1204.58,-549.326 1257.07,-508.686 1298,-467 1317.55,-447.083 1311.33,-430.061 1336,-417 1413.42,-376.007 1998.5,-367.319 2226.47,-365.487"/>
<polygon fill="black" stroke="black" points="2226.75,-368.985 2236.72,-365.407 2226.7,-361.985 2226.75,-368.985"/>
</g>
<!-- gov.nasa.jpl.imce:imce.third_party.scala_libraries_2.11:3.0.4&#45;&gt;com.sksamuel.scapegoat:scalac&#45;scapegoat&#45;plugin_2.11:1.0.0 -->
<g id="edge50" class="edge"><title>gov.nasa.jpl.imce:imce.third_party.scala_libraries_2.11:3.0.4&#45;&gt;com.sksamuel.scapegoat:scalac&#45;scapegoat&#45;plugin_2.11:1.0.0</title>
<path fill="none" stroke="black" d="M1177.74,-578.557C1218.85,-552.359 1268.44,-513.945 1298,-467 1317.42,-436.159 1291.88,-414.318 1316,-387 1330.98,-370.037 1350.51,-357.304 1371.32,-347.747"/>
<polygon fill="black" stroke="black" points="1372.85,-350.898 1380.63,-343.709 1370.07,-344.476 1372.85,-350.898"/>
</g>
<!-- org.scala&#45;lang.modules:scala&#45;xml_2.11:1.0.4 -->
<g id="node10" class="node"><title>org.scala&#45;lang.modules:scala&#45;xml_2.11:1.0.4</title>
<ellipse fill="none" stroke="black" cx="2317" cy="-739" rx="123.037" ry="41.7193"/>
<text text-anchor="start" x="2238.5" y="-754.233" font-family="Times Roman,serif" font-size="14.00">org.scala&#45;lang.modules</text>
<text text-anchor="start" x="2265.5" y="-737.433" font-family="Times Roman,serif" font-size="14.00">scala&#45;xml_2.11</text>
<text text-anchor="start" x="2298.5" y="-720.633" font-family="Times Roman,serif" font-size="14.00">1.0.4</text>
</g>
<!-- org.scala&#45;lang.modules:scala&#45;xml_2.11:1.0.4&#45;&gt;org.scala&#45;lang.modules:scala&#45;xml_2.11:1.0.6 -->
<g id="edge54" class="edge"><title>org.scala&#45;lang.modules:scala&#45;xml_2.11:1.0.4&#45;&gt;org.scala&#45;lang.modules:scala&#45;xml_2.11:1.0.6</title>
<path fill="none" stroke="black" d="M2440.04,-739C2483.81,-739 2533.27,-739 2577.85,-739"/>
<polygon fill="black" stroke="black" points="2577.87,-742.5 2587.87,-739 2577.87,-735.5 2577.87,-742.5"/>
<text text-anchor="middle" x="2533" y="-744.4" font-family="Times Roman,serif" font-size="14.00">Evicted By</text>
</g>
<!-- org.scala&#45;lang.modules:scala&#45;xml_2.11:1.0.2 -->
<g id="node11" class="node"><title>org.scala&#45;lang.modules:scala&#45;xml_2.11:1.0.2</title>
<ellipse fill="none" stroke="black" cx="2015" cy="-556" rx="123.037" ry="41.7193"/>
<text text-anchor="start" x="1936.5" y="-571.233" font-family="Times Roman,serif" font-size="14.00">org.scala&#45;lang.modules</text>
<text text-anchor="start" x="1963.5" y="-554.433" font-family="Times Roman,serif" font-size="14.00">scala&#45;xml_2.11</text>
<text text-anchor="start" x="1996.5" y="-537.633" font-family="Times Roman,serif" font-size="14.00">1.0.2</text>
</g>
<!-- org.scala&#45;lang.modules:scala&#45;xml_2.11:1.0.2&#45;&gt;org.scala&#45;lang.modules:scala&#45;xml_2.11:1.0.6 -->
<g id="edge56" class="edge"><title>org.scala&#45;lang.modules:scala&#45;xml_2.11:1.0.2&#45;&gt;org.scala&#45;lang.modules:scala&#45;xml_2.11:1.0.6</title>
<path fill="none" stroke="black" d="M2115.55,-579.733C2209.54,-602.211 2353.66,-637.429 2478,-671 2521.41,-682.719 2569.1,-696.482 2609.98,-708.549"/>
<polygon fill="black" stroke="black" points="2609.09,-711.936 2619.67,-711.417 2611.07,-705.223 2609.09,-711.936"/>
<text text-anchor="middle" x="2317" y="-676.4" font-family="Times Roman,serif" font-size="14.00">Evicted By</text>
</g>
<!-- org.scala&#45;lang:scalap:2.11.8&#45;&gt;org.scala&#45;lang:scala&#45;compiler:2.11.8 -->
<g id="edge26" class="edge"><title>org.scala&#45;lang:scalap:2.11.8&#45;&gt;org.scala&#45;lang:scala&#45;compiler:2.11.8</title>
<path fill="none" stroke="black" d="M1578.05,-788.26C1618.16,-779.068 1668.06,-767.631 1709.69,-758.092"/>
<polygon fill="black" stroke="black" points="1710.57,-761.482 1719.53,-755.837 1709,-754.659 1710.57,-761.482"/>
</g>
<!-- org.scala&#45;lang:scala&#45;compiler:2.11.8&#45;&gt;org.scala&#45;lang.modules:scala&#45;xml_2.11:1.0.4 -->
<g id="edge18" class="edge"><title>org.scala&#45;lang:scala&#45;compiler:2.11.8&#45;&gt;org.scala&#45;lang.modules:scala&#45;xml_2.11:1.0.4</title>
<path fill="none" stroke="black" d="M1873.73,-739C1956.21,-739 2085.72,-739 2183.5,-739"/>
<polygon fill="black" stroke="black" points="2183.76,-742.5 2193.76,-739 2183.76,-735.5 2183.76,-742.5"/>
</g>
<!-- org.scala&#45;lang:scala&#45;compiler:2.11.8&#45;&gt;org.scala&#45;lang.modules:scala&#45;parser&#45;combinators_2.11:1.0.4 -->
<g id="edge28" class="edge"><title>org.scala&#45;lang:scala&#45;compiler:2.11.8&#45;&gt;org.scala&#45;lang.modules:scala&#45;parser&#45;combinators_2.11:1.0.4</title>
<path fill="none" stroke="black" d="M1868.36,-753.668C1949.35,-769.434 2079.83,-794.833 2179.25,-814.186"/>
<polygon fill="black" stroke="black" points="2178.59,-817.623 2189.07,-816.099 2179.93,-810.752 2178.59,-817.623"/>
</g>
<!-- org.scala&#45;lang:scala&#45;compiler:2.11.8&#45;&gt;org.scala&#45;lang:scala&#45;reflect:2.11.8 -->
<g id="edge38" class="edge"><title>org.scala&#45;lang:scala&#45;compiler:2.11.8&#45;&gt;org.scala&#45;lang:scala&#45;reflect:2.11.8</title>
<path fill="none" stroke="black" d="M1867.32,-723.226C1941.55,-704.682 2056.11,-668.251 2138,-606 2156.7,-591.784 2237.84,-478.062 2284.2,-412.039"/>
<polygon fill="black" stroke="black" points="2287.07,-414.038 2289.95,-403.841 2281.34,-410.019 2287.07,-414.038"/>
</g>
<!-- com.sksamuel.scapegoat:scalac&#45;scapegoat&#45;plugin_2.11:1.0.0&#45;&gt;org.scala&#45;lang.modules:scala&#45;xml_2.11:1.0.2 -->
<g id="edge20" class="edge"><title>com.sksamuel.scapegoat:scalac&#45;scapegoat&#45;plugin_2.11:1.0.0&#45;&gt;org.scala&#45;lang.modules:scala&#45;xml_2.11:1.0.2</title>
<path fill="none" stroke="black" d="M1596.46,-352.262C1621.79,-361.99 1649.14,-372.983 1674,-384 1767.98,-425.652 1873.2,-479.939 1941.58,-516.28"/>
<polygon fill="black" stroke="black" points="1940.09,-519.452 1950.56,-521.063 1943.38,-513.274 1940.09,-519.452"/>
</g>
<!-- com.sksamuel.scapegoat:scalac&#45;scapegoat&#45;plugin_2.11:1.0.0&#45;&gt;org.scala&#45;lang:scala&#45;reflect:2.11.8 -->
<g id="edge44" class="edge"><title>com.sksamuel.scapegoat:scalac&#45;scapegoat&#45;plugin_2.11:1.0.0&#45;&gt;org.scala&#45;lang:scala&#45;reflect:2.11.8</title>
<path fill="none" stroke="black" d="M1580.29,-283.136C1618.75,-266.767 1666.85,-249.224 1712,-241 1907,-205.48 2135.85,-285.92 2247.98,-333.368"/>
<polygon fill="black" stroke="black" points="2246.92,-336.718 2257.49,-337.429 2249.67,-330.281 2246.92,-336.718"/>
</g>
<!-- org.scaldi:scaldi_2.11:0.4 -->
<g id="node19" class="node"><title>org.scaldi:scaldi_2.11:0.4</title>
<ellipse fill="none" stroke="black" cx="1793" cy="-291" rx="65.9683" ry="41.7193"/>
<text text-anchor="start" x="1760.5" y="-306.233" font-family="Times Roman,serif" font-size="14.00">org.scaldi</text>
<text text-anchor="start" x="1754.5" y="-289.433" font-family="Times Roman,serif" font-size="14.00">scaldi_2.11</text>
<text text-anchor="start" x="1781.5" y="-272.633" font-family="Times Roman,serif" font-size="14.00">0.4</text>
</g>
<!-- com.sksamuel.scapegoat:scalac&#45;scapegoat&#45;plugin_2.11:1.0.0&#45;&gt;org.scaldi:scaldi_2.11:0.4 -->
<g id="edge52" class="edge"><title>com.sksamuel.scapegoat:scalac&#45;scapegoat&#45;plugin_2.11:1.0.0&#45;&gt;org.scaldi:scaldi_2.11:0.4</title>
<path fill="none" stroke="black" d="M1650.69,-304.836C1673.6,-302.608 1696.46,-300.386 1716.94,-298.395"/>
<polygon fill="black" stroke="black" points="1717.49,-301.858 1727.11,-297.406 1716.82,-294.89 1717.49,-301.858"/>
</g>
<!-- org.scaldi:scaldi_2.11:0.4&#45;&gt;org.scala&#45;lang:scala&#45;reflect:2.11.8 -->
<g id="edge42" class="edge"><title>org.scaldi:scaldi_2.11:0.4&#45;&gt;org.scala&#45;lang:scala&#45;reflect:2.11.8</title>
<path fill="none" stroke="black" d="M1858.04,-300.185C1951.77,-313.422 2125.04,-337.891 2229.78,-352.683"/>
<polygon fill="black" stroke="black" points="2229.31,-356.15 2239.7,-354.083 2230.29,-349.219 2229.31,-356.15"/>
</g>
</g>
</svg>
